<svg width="118" height="22" viewBox="0 0 118 22" fill="#f1cc41" xmlns="http://www.w3.org/2000/svg">
<g id="Shape">
<path id="Star 25" d="M10.0489 2.92705C10.3483 2.00574 11.6517 2.00574 11.9511 2.92705L13.2451 6.90983C13.379 7.32185 13.763 7.60081 14.1962 7.60081H18.3839C19.3527 7.60081 19.7554 8.84043 18.9717 9.40983L15.5838 11.8713C15.2333 12.126 15.0866 12.5773 15.2205 12.9894L16.5146 16.9721C16.8139 17.8934 15.7595 18.6596 14.9757 18.0902L11.5878 15.6287C11.2373 15.374 10.7627 15.374 10.4122 15.6287L7.02426 18.0902C6.24054 18.6596 5.18607 17.8934 5.48542 16.9721L6.7795 12.9894C6.91338 12.5773 6.76672 12.126 6.41623 11.8713L3.02827 9.40983C2.24456 8.84043 2.64734 7.60081 3.61606 7.60081H7.8038C8.23703 7.60081 8.62099 7.32185 8.75486 6.90983L10.0489 2.92705Z" fill="#FE8B75"/>
<path id="Star 26" d="M34.0489 2.92705C34.3483 2.00574 35.6517 2.00574 35.9511 2.92705L37.2451 6.90983C37.379 7.32185 37.763 7.60081 38.1962 7.60081H42.3839C43.3527 7.60081 43.7554 8.84043 42.9717 9.40983L39.5838 11.8713C39.2333 12.126 39.0866 12.5773 39.2205 12.9894L40.5146 16.9721C40.8139 17.8934 39.7595 18.6596 38.9757 18.0902L35.5878 15.6287C35.2373 15.374 34.7627 15.374 34.4122 15.6287L31.0243 18.0902C30.2405 18.6596 29.1861 17.8934 29.4854 16.9721L30.7795 12.9894C30.9134 12.5773 30.7667 12.126 30.4162 11.8713L27.0283 9.40983C26.2446 8.84043 26.6473 7.60081 27.6161 7.60081H31.8038C32.237 7.60081 32.621 7.32185 32.7549 6.90983L34.0489 2.92705Z" fill="#FE8B75"/>
<path id="Star 27" d="M58.0489 2.92705C58.3483 2.00574 59.6517 2.00574 59.9511 2.92705L61.2451 6.90983C61.379 7.32185 61.763 7.60081 62.1962 7.60081H66.3839C67.3527 7.60081 67.7554 8.84043 66.9717 9.40983L63.5838 11.8713C63.2333 12.126 63.0866 12.5773 63.2205 12.9894L64.5146 16.9721C64.8139 17.8934 63.7595 18.6596 62.9757 18.0902L59.5878 15.6287C59.2373 15.374 58.7627 15.374 58.4122 15.6287L55.0243 18.0902C54.2405 18.6596 53.1861 17.8934 53.4854 16.9721L54.7795 12.9894C54.9134 12.5773 54.7667 12.126 54.4162 11.8713L51.0283 9.40983C50.2446 8.84043 50.6473 7.60081 51.6161 7.60081H55.8038C56.237 7.60081 56.621 7.32185 56.7549 6.90983L58.0489 2.92705Z" fill="#FE8B75"/>
<path id="Star 28" d="M82.0489 2.92705C82.3483 2.00574 83.6517 2.00574 83.9511 2.92705L85.2451 6.90983C85.379 7.32185 85.763 7.60081 86.1962 7.60081H90.3839C91.3527 7.60081 91.7554 8.84043 90.9717 9.40983L87.5838 11.8713C87.2333 12.126 87.0866 12.5773 87.2205 12.9894L88.5146 16.9721C88.8139 17.8934 87.7595 18.6596 86.9757 18.0902L83.5878 15.6287C83.2373 15.374 82.7627 15.374 82.4122 15.6287L79.0243 18.0902C78.2405 18.6596 77.1861 17.8934 77.4854 16.9721L78.7795 12.9894C78.9134 12.5773 78.7667 12.126 78.4162 11.8713L75.0283 9.40983C74.2446 8.84043 74.6473 7.60081 75.6161 7.60081H79.8038C80.237 7.60081 80.621 7.32185 80.7549 6.90983L82.0489 2.92705Z" fill="#FE8B75"/>
<path id="Star 29" d="M107 3.23607L108.294 7.21885C108.562 8.04289 109.33 8.60081 110.196 8.60081H114.384L110.996 11.0623C110.295 11.5716 110.002 12.4743 110.269 13.2984L111.564 17.2812L108.176 14.8197C107.475 14.3104 106.525 14.3104 105.824 14.8197L102.436 17.2812L103.731 13.2984C103.998 12.4743 103.705 11.5716 103.004 11.0623L99.6161 8.60081L103.804 8.60081C104.67 8.60081 105.438 8.04289 105.706 7.21885L107 3.23607Z" stroke="#FE8B75" stroke-width="2"/>
</g>
</svg>
